# xmcd
#
# Track frame offsets:
#	150
#	4448
#	23487
#	55451
#	72102
#	92169
#	113678
#	137846
#	164310
#	181288
#	201572
#	228356
#
# Disc length: 3461 seconds
#
# Revision: 0
# Processed by: cddbd v1.5.2PL0 Copyright (c) Steve Scherf et al.
# Submitted via: Jack! The Knife 18 Bulletproof
#
DISCID=a20d830c
DTITLE=Helloween - Gambling With The Devil
DYEAR=2007
DGENRE=Heavy Metal
TTITLE0=Crack The Riddle
TTITLE1=Kill It
TTITLE2=The Saints
TTITLE3=As Long As I Fall
TTITLE4=Paint A New World
TTITLE5=Final Fortune
TTITLE6=The Bells Of The 7 Hells
TTITLE7=Fallen To Pieces
TTITLE8=I.M.E.
TTITLE9=Can Do It
TTITLE10=Dreambound
TTITLE11=Heaven Tells No Lies
EXTD=Charlie Bauerfeind
EXTT0=Deris, Weikath, Gerstner, Loble, Grosskopf
EXTT1=Andy Deris
EXTT2=Michael Weikath
EXTT3=Andy Deris
EXTT4=Sascha Gerstner
EXTT5=Markus Grosskopf
EXTT6=Andy Deris
EXTT7=Andy Deris
EXTT8=Andy Deris
EXTT9=Michael Weikath
EXTT10=Sascha Gerstner
EXTT11=Markus Grosskopf
PLAYORDER=
